<svg width="321" height="321" viewBox="0 0 321 321" fill="none" xmlns="http://www.w3.org/2000/svg">
<circle cx="160.5" cy="160.5" r="160.5" fill="#CCBDE2"/>
<path d="M165.098 118.965C169.55 118.965 171.823 121.238 171.918 125.785L175.754 217H158.846L155.436 133.031H152.737L134.408 198.814C133.556 202.697 131.141 204.639 127.162 204.639H114.659C110.586 204.639 108.076 202.697 107.129 198.814L88.8007 133.031H86.1012L82.9754 217H66.0679L69.9041 125.785C70.0935 121.238 72.3668 118.965 76.7239 118.965H94.4839C98.2727 118.965 100.641 120.907 101.588 124.79L116.648 178.496C117.311 180.77 117.832 183.043 118.211 185.316C118.685 187.589 119.206 189.863 119.774 192.136H121.905C122.474 189.863 122.995 187.589 123.468 185.316C123.942 183.043 124.463 180.722 125.031 178.354L140.092 124.79C140.944 120.907 143.359 118.965 147.338 118.965H165.098ZM215.737 118.681C220.568 118.681 225.446 118.728 230.371 118.823C235.391 118.823 240.317 118.917 245.148 119.107C250.073 119.202 254.62 119.486 258.787 119.959L257.935 133.031H221.846C219.005 133.031 216.874 133.694 215.453 135.02C214.032 136.346 213.322 138.43 213.322 141.271V217H195.562V137.719C195.562 131.752 197.409 127.111 201.103 123.796C204.797 120.386 209.675 118.681 215.737 118.681ZM197.977 160.736H252.536V173.808H197.977V160.736Z" fill="#614255"/>
</svg>
